<?xml version="1.0" encoding="UTF-8" standalone="no"?>
<!DOCTYPE svg PUBLIC "-//W3C//DTD SVG 1.1//EN" "http://www.w3.org/Graphics/SVG/1.1/DTD/svg11.dtd">
<svg width="100%" height="100%" viewBox="0 0 574 574" version="1.1" xmlns="http://www.w3.org/2000/svg" xmlns:xlink="http://www.w3.org/1999/xlink" xml:space="preserve" xmlns:serif="http://www.serif.com/" style="fill-rule:evenodd;clip-rule:evenodd;stroke-linejoin:round;stroke-miterlimit:2;">
    <g transform="matrix(1,0,0,1,-1403.18,-501)">
        <g transform="matrix(8.33333,0,0,8.33333,0,0)">
            <path d="M220.95,67.15L220.95,89.21C220.95,91.88 219,94.27 216.34,94.52C213.29,94.81 210.72,92.42 210.72,89.43L210.72,61.85C210.72,61.38 210.4,60.97 209.94,60.87C207.64,60.38 205.26,60.12 202.81,60.12C200.69,60.12 198.62,60.31 196.6,60.68C196.13,60.77 195.79,61.19 195.79,61.67L195.97,96.89C195.99,100.19 198.67,102.86 201.97,102.86L215.78,102.86C218.45,102.86 220.84,104.81 221.09,107.47C221.38,110.52 218.99,113.09 216,113.09L198.34,113.04C191.38,113.02 185.74,107.39 185.71,100.42L185.58,66.53C185.58,65.74 184.7,65.27 184.03,65.7C174,72.24 167.59,83.85 168.46,96.9C169.63,114.44 184.24,128.46 201.82,128.94C221.28,129.48 237.22,113.87 237.22,94.53C237.22,82.86 231.4,72.54 222.52,66.32C221.86,65.87 220.95,66.34 220.95,67.15Z" style="fill:white;fill-rule:nonzero;"/>
        </g>
    </g>
</svg>
