<?xml version="1.0" encoding="UTF-8"?>
<svg id="Layer_1" data-name="Layer 1" xmlns="http://www.w3.org/2000/svg" viewBox="0 0 989.29 244.32">
  <defs>
    <style>
      .cls-1 {
        letter-spacing: -.02em;
      }

      .cls-2 {
        letter-spacing: -.01em;
      }

      .cls-3 {
        font-family: Montserrat-SemiBold, Montserrat;
        font-size: 53.9px;
        font-weight: 600;
      }

      .cls-3, .cls-4, .cls-5 {
        fill: #e71a29;
      }

      .cls-6 {
        letter-spacing: -.02em;
      }

      .cls-4 {
        font-family: Montserrat-Light, Montserrat;
        font-size: 189.97px;
        font-weight: 300;
        letter-spacing: -.03em;
      }

      .cls-5 {
        stroke-width: 0px;
      }
    </style>
  </defs>
  <g>
    <path class="cls-5" d="M252.65,70.34c0-12.28,0-23.25,0-34.21,0-6.15.2-12.3-.06-18.43-.2-4.56,1.69-6.1,6.07-5.9,5.41.24,10.86.29,16.26-.01,4.89-.28,6.3,1.99,6.25,6.44-.12,12.47-.03,24.94-.03,37.41,0,32.17,0,64.35,0,96.52,0,8.51-.12,8.61-8.32,8.64q-14.59.05-15.84-14.58c-.03-.33-.23-.65-.34-.95-.35,0-.87-.14-.98.02-16.51,22.51-51.97,23.33-72.2,1.01-21.91-24.18-17.77-68.88,8.6-86.91,18.88-12.91,42.79-9.83,57.73,7.43.68.79,1.31,1.61,2.87,3.53ZM252.65,108.73c0-2.35-.27-4.73.05-7.03,1.35-9.93-9.53-20.7-18.2-23.86-9.66-3.53-18.52-2.14-25.95,5.27-9.46,9.42-11.57,21.02-8.58,33.5,2.53,10.59,9.28,17.96,20.01,20.71,10.7,2.75,19.67-.61,27.54-8.39,5.99-5.93,5.18-13.03,5.14-20.2Z"/>
    <path class="cls-5" d="M477.28,107.09c0-31.97,23.9-55.71,56.09-55.72,32.12,0,56.09,23.83,56.08,55.77-.01,31.99-23.95,55.78-56.09,55.74-32.14-.04-56.08-23.86-56.08-55.79ZM560.68,105.48c-.26-1.68-.56-4.74-1.22-7.73-2.64-11.97-12.39-20.91-23.37-21.57-13.24-.8-23.4,6.02-27.7,18.7-2.88,8.5-2.73,17.07.27,25.47,4.6,12.9,16.67,19.78,29.99,17.37,12.77-2.31,22.12-15.41,22.03-32.25Z"/>
    <path class="cls-5" d="M79.45,70.34c10.83-12.59,23.44-17.65,38.13-18.81,16.82-1.33,29.44,7.09,33.57,23.37,1.42,5.61,2.23,11.34,2.23,17.15,0,20.6.02,41.2,0,61.79,0,6.67-.28,6.9-7.13,6.94-5.24.03-10.49-.2-15.72.06-4.8.24-5.7-2.25-5.67-6.35.11-17.89.01-35.77.05-53.66.01-4.92-.37-9.75-2.13-14.38-2.75-7.27-9.17-10.91-16.8-9.54-14.51,2.61-24.13,14.06-24.14,28.73,0,16.08-.15,32.16.09,48.24.07,5.03-1.34,7.34-6.71,6.99-5.4-.35-10.84-.2-16.26-.04-3.81.11-5.63-1.22-5.62-5.29.08-32.34.06-64.68.01-97.03,0-3.57,1.24-5.4,5.04-5.3,5.24.13,10.48.14,15.72,0,4.04-.1,5.47,1.9,5.36,5.65-.1,3.23-.02,6.46-.02,11.48Z"/>
    <path class="cls-5" d="M463.66,107.1c0,31.99-23.73,55.66-55.9,55.77-32.23.1-56.34-23.91-56.28-56.04.06-31.73,24.41-55.72,56.27-55.46,32.39.27,55.9,23.71,55.9,55.73ZM436.2,111.45c-.02-12.13-5.72-24.17-15.77-33.28-8.45-7.66-16.46-7.86-25.07-.39-9.1,7.91-14.43,18-16.08,29.88-2.25,16.18,9.78,31.07,25.71,32.16,17.57,1.21,31.24-11.22,31.22-28.38Z"/>
    <path class="cls-5" d="M463.65,175.96c.96,13.63-2.68,27.23-12.22,38.75-14.9,18-34.62,22.89-56.68,18.51-20.93-4.16-34.45-17.26-40.97-37.58-3.39-10.58-2.1-21.49-2.25-32.3-.04-2.75,1.47-3.89,4.07-3.89,7.05,0,14.1.02,21.15-.03,3.48-.02,4.17,2.13,4.19,4.98.04,6.69-.34,13.42.29,20.05,1.04,10.78,6.12,19.27,16.41,23.71,9.71,4.19,18.85,2.56,26.87-4.16,7.62-6.38,9.89-15.3,10.4-24.75.26-4.87.18-9.76.04-14.64-.1-3.63,1.28-5.32,5.05-5.24,6.14.14,12.29.16,18.43-.01,4.1-.12,5.45,1.78,5.25,5.6-.17,3.24-.04,6.5-.04,10.99Z"/>
    <path class="cls-5" d="M30.14,107.42c0,16.24-.07,32.47.06,48.71.03,3.26-1.13,4.67-4.34,4.65-5.95-.04-11.92-.22-17.86.09-5.04.26-6.62-1.9-6.58-6.69.15-17.14.06-34.28.06-51.42,0-14.25.15-28.51-.07-42.76-.08-5.2,1.88-7.14,7-6.84,5.21.31,10.47.24,15.69.02,4.48-.19,5.98,1.66,5.93,6.07-.17,16.06-.07,32.11-.07,48.17.06,0,.12,0,.18,0Z"/>
    <path class="cls-5" d="M306.13,106.67c0-15.72.11-31.44-.07-47.16-.05-4.63,1.48-6.6,6.26-6.35,5.59.28,11.2.18,16.8.04,3.84-.1,5.52,1.33,5.51,5.37-.09,32.34-.08,64.68-.01,97.02,0,3.67-1.39,5.29-5.1,5.21-5.42-.12-10.84,0-16.26-.02-6.78-.03-7.1-.31-7.12-6.96-.03-15.72-.01-31.44,0-47.16Z"/>
    <path class="cls-5" d="M320.79,41.64c-9.65.05-16.73-6.74-16.68-15.99.05-9.04,7.1-15.93,16.31-15.93,9.16,0,16.22,6.89,16.29,15.87.07,9.25-6.63,16-15.92,16.05Z"/>
    <path class="cls-5" d="M16.17,41.64C6.51,41.67.11,35.48,0,26-.11,16.38,6.58,9.65,16.2,9.71c9.37.06,15.89,6.66,15.89,16.05,0,9.55-6.32,15.84-15.91,15.87Z"/>
  </g>
  <text class="cls-4" transform="translate(591.13 161.47)"><tspan x="0" y="0">Hub</tspan></text>
  <text class="cls-3" transform="translate(729.89 230.04)"><tspan class="cls-1" x="0" y="0">Ba</tspan><tspan class="cls-2" x="72.01" y="0">n</tspan><tspan class="cls-1" x="108.34" y="0">du</tspan><tspan class="cls-2" x="180.36" y="0">n</tspan><tspan class="cls-6" x="216.69" y="0">g</tspan></text>
</svg>