<?xml version="1.0" encoding="UTF-8"?>
<svg id="Layer_1" data-name="Layer 1" xmlns="http://www.w3.org/2000/svg" viewBox="0 0 706 122.92">
  <defs>
    <style>
      .cls-1 {
        fill: #af151b;
      }

      .cls-1, .cls-2, .cls-3, .cls-4, .cls-5, .cls-6, .cls-7, .cls-8, .cls-9, .cls-10, .cls-11, .cls-12, .cls-13 {
        stroke-width: 0px;
      }

      .cls-2 {
        fill: #5a5b5d;
      }

      .cls-3 {
        fill: #0d0d0d;
      }

      .cls-4 {
        fill: #161616;
      }

      .cls-5 {
        fill: #6e7175;
      }

      .cls-6 {
        fill: #0b0b0b;
      }

      .cls-7 {
        fill: #727479;
      }

      .cls-8 {
        fill: #6d6f74;
      }

      .cls-9 {
        fill: #111;
      }

      .cls-10 {
        fill: #e62429;
      }

      .cls-11 {
        fill: #707277;
      }

      .cls-12 {
        fill: #828387;
      }

      .cls-13 {
        fill: #0a0a0a;
      }
    </style>
  </defs>
  <path class="cls-12" d="M54.07,85.73c.96-2.61,1.24-5.3,1.21-8.08-.08-6.51-.14-13.03.03-19.53.18-7.13,3.42-10.23,10.56-10.35,4.34-.07,8.68,0,13.02-.02,1.75,0,3.23.27,3.18,2.52-.25,11.71,1.01,23.49-.57,35.11-2.18,16.01-11.44,26.73-26.46,32.54.61-9.67-.8-19.39.81-29.03.25-1.48-.46-2.5-1.78-3.15Z"/>
  <path class="cls-12" d="M27.06,117.45c-14.89-5.6-23.51-16.49-25.89-31.99-1.76-11.47-.42-23.13-.73-34.69-.06-2.27.97-3.08,3.14-3.04,4.63.07,9.27-.04,13.9.05,6.32.12,9.57,3.27,9.78,9.69.17,5.21.06,10.42.05,15.64-.01,4.19-.16,8.39,1.06,12.47-1.66,1.3-1.09,3.15-1.11,4.8-.1,9.03-.14,18.06-.2,27.09Z"/>
  <path class="cls-6" d="M283.95,93.03c0-4.21-.02-8.41,0-12.62.02-4.89,1.22-6.25,5.9-5.32,2.91.58,5.55.33,8.36-.04,2.57-.33,5.26-.35,7.63,1.06,1.26.75,2.38.66,3.67.05,3.13-1.48,6.51-1.37,9.84-1.14,5.52.39,9.55,4.29,9.73,9.84.24,7.39.05,14.79.09,22.19.02,3.43-2.11,3.97-4.91,3.96-2.9,0-4.76-.84-4.72-4.18.07-6.24-.02-12.47.02-18.71.01-2.39-.71-4.28-3.08-5.2-2.9-1.13-4.79.03-4.82,3.15-.07,6.67-.13,13.35,0,20.01.07,3.53-1.34,4.97-4.89,4.96-3.51,0-5.01-1.36-4.91-4.94.16-5.51.04-11.02.03-16.53,0-1.01.07-2.05-.12-3.04-.57-2.9-2.47-4.09-5.34-3.89-2.9.2-2.87,2.22-2.85,4.37.05,6.38-.1,12.77.05,19.14.08,3.6-1.44,4.86-4.94,4.89-3.63.03-4.92-1.46-4.78-4.97.18-4.34.04-8.7.04-13.05Z"/>
  <path class="cls-10" d="M41.09,34.17c-7.96-7.75-17.88-8.26-28.2-8.08-12.36.22-12.41-.01-12.36-12.26.02-3.74-1.58-8.48.69-10.95,2.41-2.62,7.06.03,10.76-.12,4.19-.18,8.4.27,12.6.2,6.52-.11,11.82,3.29,17.47,5.72-.69,1.92-.9,3.89-.89,5.94.04,6.51-.04,13.03-.08,19.54Z"/>
  <path class="cls-9" d="M353.36,84.29c0-4.78.1-9.57-.03-14.35-.09-3.25.64-5.28,4.5-5.24,3.65.04,4.79,1.7,4.74,5.11-.12,8.69-.06,17.39-.04,26.09.01,5.68.97,6.65,6.47,6.71q11.8.13,11.8-11.79c0-7.1.08-14.2-.03-21.3-.05-3.26,1.11-4.81,4.54-4.79,3.25.02,4.81,1.24,4.78,4.62-.08,10.14.06,20.29-.08,30.43-.08,5.97-3.8,9.75-9.81,9.98-5.79.22-11.6.24-17.39.02-5.84-.23-9.18-3.9-9.43-9.83-.01-.29,0-.58,0-.87,0-4.93,0-9.86,0-14.78h-.01Z"/>
  <path class="cls-1" d="M41.09,34.17c.04-6.51.12-13.03.08-19.54-.01-2.05.2-4.02.89-5.94,5.6-4.58,12.27-5.54,19.18-5.77,5.93-.2,11.88-.37,17.79-.81,2.34-.18,3.13.45,3.09,2.76-.09,5.8-.12,11.59,0,17.39.05,2.27-.94,3.02-3.01,3.28-5.2.65-10.41.62-15.63.58-7.96-.05-15.29,1.48-20.88,7.76-.4.45-.91.68-1.51.29Z"/>
  <path class="cls-4" d="M705.96,96.69c0,5.21.1,10.43-.02,15.64-.16,6.67-3.95,10.4-10.65,10.55-4.63.1-9.27,0-13.9.01-2.37,0-3.94-.85-3.98-3.48-.04-2.76,1.43-3.88,4.08-3.85,3.47.04,6.95-.05,10.42,0,2.64.05,4.83-.61,4.69-3.69-.14-3.07-2.76-1.77-4.37-1.92-2.59-.24-5.23.02-7.8-.31-5.49-.7-8.46-3.98-8.61-9.68-.17-6.66.01-13.32-.09-19.98-.05-3.27,1.59-4.29,4.58-4.28,2.9.01,4.79.87,4.78,4.15-.02,5.79,0,11.58.01,17.37,0,1.9-.17,4.16,1.97,4.86,2.89.94,6.02.92,8.94.01,1.19-.37.75-2.05.76-3.16.03-6.08.09-12.16,0-18.24-.05-3.06.73-5.01,4.3-5.04,3.51-.03,5.01,1.43,4.92,4.95-.12,5.35-.03,10.71-.03,16.07Z"/>
  <path class="cls-11" d="M690.07,24.71c5.52,4.47,8.17,10.2,11.64,15.34,1.39,2.05,1.02,2.81-1.67,3.09-4.81.5-8.28-.63-10.53-5.33-1.48-3.1-3.81-5.8-5.79-8.66-1.1-1.58-2.52-2.77-4.45-3.28-4.12-1.09-5.16-.32-5.2,3.96-.02,2.75-.01,5.51-.01,8.26,0,4.66-2.58,6.41-7.09,4.92-1.45-.48-1.56-1.52-1.56-2.72,0-12.32,0-24.64,0-36.96,0-1.5.46-2.59,2.2-2.54,7.52.23,15.08-.72,22.56.56,5.9,1.01,9.14,4.41,9.86,9.95.71,5.45-1.99,9.88-7.49,12.34-.63.28-1.27.56-2.46,1.08ZM681.6,8.43c0-.06,0-.11,0-.17-1.01,0-2.03.12-3.02-.02-3.48-.5-5.17.69-4.58,4.43.2,1.27.05,2.59.06,3.88,0,1.16.49,2.02,1.72,2.05,4.02.1,8.07.49,12.03-.57,2.51-.68,3.33-2.74,3.21-5.01-.12-2.3-1.26-4.24-3.81-4.54-1.84-.22-3.73-.04-5.6-.04Z"/>
  <path class="cls-8" d="M201.95,17.66c0,7.08-.15,14.17.07,21.24.1,3.21-.81,4.2-4.11,4.25-3.59.06-3.93-1.49-3.9-4.42.08-10.87-.12-21.73-.04-32.6.01-1.78-1.32-4.74,1.43-5.17,3.01-.48,6.45-1.33,8.68,2.69,3.78,6.84,8.09,13.38,12.2,20.04.72,1.17,1.57,2.27,3.13,4.51,0-8.79.14-16.24-.07-23.69-.09-3.16,1.06-3.89,4-3.84,2.79.05,4.15.46,4.09,3.77-.2,11.3-.02,22.6-.13,33.91-.02,1.59,1.3,4.42-1.63,4.52-2.75.09-6.07,1.66-8.22-1.94-4.23-7.09-8.64-14.06-12.99-21.08-.51-.83-1.09-1.61-1.63-2.41-.29.08-.58.15-.87.23Z"/>
  <path class="cls-5" d="M264.73,20.37q9.55,0,9.55,9.51c0,8.5-.44,9.1-9.01,12.27-13.3,4.92-26.08-.6-29.54-12.93-1.77-6.31-1.55-12.67,1.48-18.6,3.56-6.97,9.57-10.31,17.28-10.49,6.59-.15,12.84.89,16.74,7.07,1.03,1.63,3.26,3.53,1.07,5.6-1.9,1.79-7.07.87-8.53-1.14-2.45-3.36-6.74-4.77-11.25-3.68-4.73,1.14-7.94,4.44-8.5,9.31-.33,2.86-.38,5.82,0,8.67,1.29,9.49,11.82,13.59,19.71,7.87,1.77-1.28,1.72-2.96,1.56-4.64-.21-2.17-2.09-1.49-3.43-1.59-1.01-.07-2.04-.12-3.04.01-2.82.37-3.44-1.04-3.36-3.55.07-2.27.13-4.05,3.19-3.74,2.01.21,4.06.04,6.09.04Z"/>
  <path class="cls-8" d="M573.85,27.07c0-7.69.14-15.08-.07-22.46-.08-3.03.84-3.94,3.89-3.96,3.19-.03,4.24.81,4.18,4.14-.21,11.15-.02,22.31-.15,33.47-.02,1.61,1.29,4.41-1.55,4.61-2.76.2-6.09,1.59-8.21-1.97-4.08-6.84-8.29-13.6-12.54-20.33-.64-1.01-.87-2.51-2.9-2.93,0,7.3-.16,14.47.07,21.62.1,3.18-1.06,3.93-3.99,3.87-2.72-.06-4.21-.34-4.14-3.73.22-11.01,0-22.02.16-33.03.03-1.83-1.58-4.91,1.61-5.42,3.1-.5,6.37-.98,8.56,3.02,3.88,7.11,8.41,13.86,12.69,20.75.5.81.7,1.92,2.39,2.36Z"/>
  <path class="cls-5" d="M395.14,20.37q8.87,0,8.89,8.84c.02,9.36-1.15,10.89-10.22,13.48-11.85,3.38-22.44-.56-26.88-10.54-3.87-8.68-3.34-17.42,2.64-25,5.93-7.51,14.32-8.14,22.98-6.24,4.98,1.09,8.34,4.42,10.32,9.15.73,1.75.45,2.83-1.52,3.09-2.98.38-5.84,1.89-8.21-2.11-2.2-3.71-6.45-3.89-10.56-3.02-4.48.95-7.08,3.87-8.18,8.06-1.01,3.83-.96,7.82.12,11.62,2.74,9.69,12.72,10.41,19.72,5.82,1.66-1.09,1.28-2.84,1.11-4.36-.25-2.23-2.18-1.22-3.43-1.56-2.07-.56-5.22,1.71-6.1-1.96-.98-4.07.04-5.22,4.13-5.25,1.74-.01,3.48,0,5.22,0Z"/>
  <path class="cls-7" d="M411.49,21.55c0-5.66.14-11.32-.06-16.97-.11-3.1,1.02-3.96,4.03-3.89,7.97.19,15.96.19,23.93,0,3.04-.08,3.63,1.18,3.65,3.84.01,2.66-.57,3.99-3.62,3.86-5.21-.22-10.45.13-15.66-.13-3.84-.19-3.25,2.23-3.27,4.52-.01,2.32-.49,4.71,3.31,4.5,4.77-.25,9.58.07,14.35-.11,2.7-.11,3.6.84,3.46,3.49-.12,2.31.12,4.31-3.29,4.14-4.78-.24-9.57.05-14.36-.12-2.61-.09-3.56.72-3.51,3.43.16,9.15-.77,7.34,7.22,7.5,4.35.09,8.71.17,13.05-.03,2.99-.14,3.27,1.42,3.21,3.76-.05,2.18.08,3.88-3.09,3.8-8.7-.2-17.41-.13-26.11-.03-2.44.03-3.35-.82-3.31-3.28.11-6.09.04-12.18.04-18.28h.02Z"/>
  <path class="cls-7" d="M626.3,21.66c0-5.79.08-11.59-.04-17.38-.05-2.49.51-3.66,3.35-3.6,8.25.17,16.51.19,24.76,0,3.17-.07,3.44,1.47,3.52,3.98.1,2.86-.92,3.82-3.77,3.71-5.06-.19-10.15.19-15.2-.13-3.93-.25-3.58,2.03-3.68,4.61-.11,2.85.2,4.68,3.86,4.45,4.76-.3,9.56.07,14.33-.12,3.38-.14,2.74,2.08,2.84,4.04.11,2.07,0,3.7-2.87,3.56-4.05-.19-8.11-.06-12.16-.06q-5.96,0-5.95,6.16c0,.29.03.58,0,.87-.45,3.05.87,4.05,3.9,3.94,5.35-.2,10.72.08,16.07-.12,2.99-.11,3.22,1.43,3.2,3.75-.02,2.26-.11,3.87-3.15,3.81-8.54-.16-17.09-.15-25.63-.01-2.8.05-3.45-1.16-3.4-3.64.11-5.94.03-11.87.03-17.81Z"/>
  <path class="cls-13" d="M169.24,110.97c-2.76,0-5.52.1-8.26-.03-6.24-.28-10.22-4.31-10.36-10.55-.11-4.93-.11-9.86,0-14.79.13-6.26,4.08-10.36,10.29-10.62,3.76-.16,7.55-.17,11.31,0,7.1.32,10.48,4.74,10.32,13.21-.11,6.33-2.82,8.75-10.12,8.96-2.75.08-5.51-.07-8.26.07-1.36.07-3.55-.98-3.64,1.7-.08,2.42,1.28,3.86,3.69,3.92,4.49.11,8.99.04,13.48.06,1.6,0,3.25-.13,4.33,1.42,1.88,2.72.13,6.33-3.21,6.63-.29.03-.58.01-.87.01-2.9,0-5.8,0-8.7,0ZM166.02,89.17c1.06,0,1.78.01,2.49,0,2-.03,4.19.3,4.18-2.83,0-2.75-1.4-3.89-3.99-3.87-1.72.01-3.44-.04-5.15.06-2.04.11-3,1.25-3.15,3.32-.39,5.48,3.86,2.43,5.62,3.32Z"/>
  <path class="cls-3" d="M218.55,89.39c2.76-3.43,5.72-6.73,8.23-10.33,2.37-3.4,5.42-4.57,9.33-4.14.98.11,2.22-.31,2.77.76.65,1.27-.5,2.14-1.19,3-2.72,3.39-5.39,6.82-8.29,10.05-1.65,1.84-1.75,3.21-.22,5.21,3.24,4.26,6.19,8.75,9.3,13.1,1.9,2.65,1.39,3.63-1.97,3.87-4.65.34-8.01-.81-10.36-5.21-2.12-3.99-4.98-7.6-8.53-11.12,0,3.82-.14,7.65.04,11.46.17,3.63-1.5,4.85-4.94,4.87-3.56.02-4.88-1.47-4.86-4.97.1-12.6.08-25.2-.01-37.8-.03-3.48,1.27-4.97,4.86-4.97,3.49,0,5.03,1.21,4.96,4.83-.15,7.02-.04,14.04-.04,21.06.31.11.61.23.92.34Z"/>
  <path class="cls-7" d="M509.35,21.9c0-5.8.11-11.6-.05-17.39-.07-2.67.48-3.91,3.54-3.84,8.11.2,16.23.2,24.34,0,3.11-.08,3.49,1.28,3.52,3.89.03,2.71-.58,3.95-3.6,3.82-5.35-.22-10.73.09-16.08-.11-4.1-.15-2.83,2.7-2.95,4.75-.13,2.14-.57,4.42,3.03,4.25,4.92-.23,9.86.09,14.78-.11,3.1-.13,3.09,1.59,3.12,3.83.03,2.29-.13,3.92-3.15,3.8-4.77-.19-9.57.06-14.34-.11-2.58-.09-3.58.65-3.51,3.39.22,9.29-.83,7.38,7.13,7.55,4.49.1,8.99.19,13.47-.04,3.17-.16,3.01,1.67,3.07,3.84.06,2.33-.15,3.79-3.18,3.72-8.55-.19-17.1-.18-25.65,0-3.03.06-3.62-1.15-3.54-3.85.17-5.79.05-11.59.06-17.39Z"/>
  <path class="cls-13" d="M275.71,92.67c0,2.75.12,5.51-.03,8.25-.31,5.79-4.19,9.72-9.99,10-3.9.19-7.83.17-11.73,0-6.03-.27-9.99-4.29-10.14-10.27-.12-5.07-.11-10.14,0-15.21.14-6.22,4.13-10.23,10.41-10.47,3.47-.14,6.95-.09,10.43-.01,7,.16,10.91,4.14,11.07,11.19.05,2.17,0,4.35,0,6.52h-.02ZM265.84,92.95c0-1.45.02-2.89,0-4.34-.09-4.88-1.41-6.17-6.23-6.15-4.49.03-5.92,1.43-6,5.98-.05,2.75-.03,5.5-.01,8.25.03,5.42,1.23,6.75,6.05,6.77,4.98.02,6.14-1.22,6.2-6.61.01-1.3,0-2.6,0-3.91Z"/>
  <path class="cls-5" d="M169.57,33.49c-2.08,0-3.11.12-4.11-.02-4.04-.58-6.32.75-7.43,5.03-1.23,4.8-3.61,5.61-8.81,4.56-1.9-.38-1.51-1.29-1.06-2.45,4.86-12.51,9.76-25,14.57-37.53,1.36-3.55,4.31-2.02,6.68-2.3,1.98-.24,3.36.15,4.27,2.51,4.69,12.11,9.58,24.15,14.56,36.15,1.21,2.91.67,4.03-2.49,3.58-2.33-.33-5.54,1.38-6.38-2.55-1.3-6.01-4.73-8.59-9.82-6.98ZM168.58,12.33c-.33-.02-.65-.05-.98-.07-1.35,3.79-2.64,7.6-4.09,11.35-.85,2.2-.13,2.88,2.05,2.78,1.87-.09,3.75-.01,5.63-.05,1.57-.03,2.55-.54,1.83-2.39-1.5-3.87-2.96-7.75-4.44-11.62Z"/>
  <path class="cls-5" d="M356.63,43.04c-3.2.79-4.98-.92-5.66-4.35-.78-3.92-2.89-6.1-7.22-5.22-.83.17-1.75.14-2.6,0-6.13-.97-10.64.34-11.65,7.5-.26,1.82-8.05,3.09-9.08,1.63-.58-.82-.02-1.67.29-2.46,4.74-12.25,9.59-24.47,14.19-36.78,1.34-3.59,4.1-2.35,6.5-2.61,2.41-.26,3.95.38,4.95,2.97,4.48,11.58,9.2,23.06,13.82,34.58q1.9,4.72-3.53,4.73ZM340.43,10.81c-1.69,4.87-2.99,8.96-4.55,12.93-.75,1.92-.48,2.69,1.64,2.64,2.03-.05,4.06.01,6.09-.05,1.51-.05,2.53-.38,1.74-2.36-1.65-4.1-3.1-8.27-4.92-13.16Z"/>
  <path class="cls-2" d="M27.06,117.45c.06-9.03.1-18.06.2-27.09.02-1.65-.56-3.5,1.11-4.8,2.65,4.8,6.55,7.79,12.13,8.15,6.3.42,10.56-2.76,13.57-7.99,1.31.64,2.02,1.67,1.78,3.15-1.6,9.64-.19,19.37-.81,29.03-9.39,3.45-18.72,3.88-27.98-.46Z"/>
  <path class="cls-9" d="M524.18,109.74c-2.75,0-5.52.21-8.25-.04-5.14-.47-8.59-3.93-8.83-9.07-.24-5.2-.25-10.44,0-15.64.26-5.29,3.91-8.83,9.26-9.13,3.9-.22,7.84-.26,11.73.01,6.25.44,9.38,4.82,9.19,12.33-.14,5.65-2.78,7.99-9.39,8.22-2.61.09-5.22-.08-7.82.07-1.5.09-3.83-.96-3.88,1.96-.04,2.62,1.37,4.04,4.01,4.07,3.77.04,7.54.09,11.3.01,2.64-.05,4.69.51,4.72,3.66.03,3.17-2.03,3.77-4.66,3.7-2.46-.07-4.93-.01-7.39-.01,0-.04,0-.09,0-.13ZM521.67,89.16c1.15,0,2.3,0,3.45,0,2.38,0,3.08-1.5,2.61-3.43-1.08-4.46-4.83-2.46-7.52-2.77-2.5-.29-4.12.9-4.14,3.7,0,1.52.44,2.52,2.16,2.5,1.15-.01,2.3,0,3.45,0Z"/>
  <path class="cls-8" d="M306.56,16.25c0-4.2.15-8.41-.05-12.61-.15-3.32,2.01-3.03,4-2.82,1.83.2,4.83-1.37,4.74,2.47-.2,9.55.66,19.13-.52,28.66-.8,6.49-4.38,10.04-10.76,11.35-4.07.84-8.09.63-12.07-.28-5.4-1.24-9.43-5.5-9.62-10.95-.33-9.55-.22-19.12-.32-28.69-.04-3.79,2.82-2.38,4.69-2.6,2.02-.24,3.67-.07,3.62,2.81-.13,7.53-.16,15.07,0,22.61.16,7.28,2.67,10.08,8.49,10.04,4.98-.04,7.51-2.33,7.71-7.39.17-4.2.03-8.4.03-12.61h.05Z"/>
  <path class="cls-5" d="M474.5,21.88c.03,2.78.27,5.53,1.28,8.13,1.51,3.92,4.49,6.06,8.65,6.17,4.04.11,7.15-1.87,8.38-5.69,1.75-5.41,4.83-1.67,7.19-1.18,3.52.74,1.48,3.2.79,4.75-4.73,10.7-20.23,13.1-29.18,4.6-9.09-8.63-7.99-27.53,2.03-35.02,8.8-6.57,23.06-3.83,27.17,5.29.58,1.28,2.11,3.42-.29,3.93-2.34.5-5.37,3.47-7.34.14-2.61-4.4-6.05-6.12-10.85-5.02-4.96,1.14-6.87,4.92-7.48,9.57-.19,1.43-.24,2.88-.35,4.33Z"/>
  <path class="cls-4" d="M589.76,109.87c-2.61,0-5.21.01-7.82,0-2.26-.01-3.55-1.13-3.61-3.42-.06-2.48,1.24-3.76,3.72-3.78,4.05-.03,8.11-.04,12.16-.03,2.23,0,4.23-.42,4.16-3.19-.07-2.74-2.12-3.08-4.31-3.08-2.32,0-4.64.11-6.95-.05-5.66-.39-9.78-4.82-9.7-10.27.08-5.52,4.17-9.96,9.77-10.22,4.77-.22,9.55-.06,14.33-.1,2.55-.02,4.24.86,4.17,3.73-.08,2.93-1.97,3.52-4.42,3.49-3.47-.04-6.95.01-10.42.01-2.24,0-4.22.52-4.19,3.22.04,2.52,1.99,2.85,4.02,2.86,2.46.02,4.93-.06,7.38.1,5.37.34,9.45,4.59,9.64,9.9.2,5.53-3.72,10.22-9.24,10.71-2.87.25-5.78.04-8.68.04,0,.02,0,.05,0,.07Z"/>
  <path class="cls-3" d="M403.21,92.82c0-3.91-.02-7.82,0-11.73.04-4.78,1.87-6.45,6.47-5.06,2.53.77,4.67.54,7.08.03,2.84-.6,5.78-.54,8.64,0,4.44.84,7.58,4.14,7.74,8.72.25,7.09.08,14.19.12,21.29.02,3.18-1.92,3.81-4.58,3.78-2.61-.03-4.64-.61-4.64-3.78,0-5.65.04-11.3-.01-16.95-.04-4.64-1.58-6.2-5.86-6.15-4.68.06-5.74,1.14-5.76,5.92-.02,5.5-.06,11.01.02,16.51.05,3.09-1.24,4.47-4.41,4.48-3.14,0-4.98-.92-4.86-4.45.13-4.2.03-8.4.03-12.6Z"/>
  <path class="cls-6" d="M130.62,90.65c0-4.92-.22-9.86.07-14.76.2-3.4-1.06-4.37-4.22-4.02-2,.23-4.05,0-6.07.04-2.93.07-4.24-1.36-4.2-4.23.05-2.75,1.48-3.82,4.14-3.81,9.7.04,19.4.05,29.1,0,2.96-.02,4.2,1.35,4.14,4.24-.06,2.77-1.49,3.77-4.13,3.83-2.86.06-6.59-1.29-8.37.56-2.09,2.18-.68,6.05-.73,9.17-.12,7.96-.14,15.92,0,23.88.06,3.48-.81,5.42-4.78,5.51-4.26.09-5.13-2-4.98-5.66.19-4.91.05-9.84.05-14.76Z"/>
  <path class="cls-9" d="M643.31,92.99c0-1.45-.07-2.9.01-4.34.2-3.36.41-6.48-4.66-5.88-1.75.21-2.74-1.43-2.81-3.24-.07-2.02.91-3.79,2.89-3.59,5.16.53,4.73-2.76,4.54-6.01-.19-3.17.49-5.33,4.42-5.3,3.54.03,4.97,1.41,4.87,4.95-.18,6.55-.7,6.24,5.92,6.18,2.66-.02,5.16.11,5.06,3.68-.1,3.58-2.75,3.47-5.31,3.49-5.73.06-5.73.08-5.72,5.99,0,1.01,0,2.03,0,3.04,0,9.51,0,9.55,9.22,10.63,2.24.26,3.49,1.29,3.53,3.56.04,2.23-1.01,3.55-3.34,3.68-.29.02-.58.02-.87.03-11.5.22-18.98,1.07-17.78-16.86Z"/>
  <path class="cls-9" d="M481.66,100.85c2.51-6.89,5.15-13.74,7.46-20.7,1.27-3.83,3.89-4.66,7.4-4.37,2.29.19,3.11,1.34,2.35,3.5-3.22,9.14-6.35,18.31-9.72,27.39-1.73,4.68-6.03,2.86-9.43,3.19-2.94.28-5.01-.81-6.04-3.76-2.89-8.33-5.9-16.63-8.76-24.97-.6-1.74-2.35-4.12.67-5.09,2.5-.81,5.43-.68,6.77,2.25,1.44,3.15,2.48,6.48,3.66,9.74,1.54,4.28,3.05,8.58,4.56,12.86.36-.02.72-.04,1.08-.05Z"/>
  <path class="cls-11" d="M600.04,25.39c0-4.63-.12-9.27.05-13.9.09-2.49-.8-3.41-3.24-3.2-1.58.14-3.21-.18-4.77.05-3.87.57-4.63-1.29-4.43-4.7.14-2.33.98-2.93,3.14-2.91,9.12.08,18.25.11,27.37-.01,2.83-.04,2.98,1.49,2.88,3.58-.1,1.97.49,4.36-2.84,4.01-.14-.01-.29,0-.43,0q-8.69.38-8.7,9.05c0,7.1-.21,14.2.1,21.29.17,3.84-1.37,4.51-4.77,4.53-3.33.02-4.69-.73-4.44-4.32.32-4.47.08-8.97.08-13.46Z"/>
  <path class="cls-7" d="M116.03,21.95c0-5.65.23-11.32-.08-16.95-.21-3.84,1.93-3.68,4.58-3.76,2.71-.08,4.27.24,4.18,3.64-.23,8.84.09,17.69-.17,26.52-.1,3.55,1.14,4.46,4.44,4.28,4.48-.24,8.99.09,13.47-.12,2.89-.13,3.4,1.19,3.3,3.66-.09,2.19,0,3.95-3.1,3.89-7.82-.16-15.65-.12-23.48,0-2.51.04-3.25-.92-3.19-3.33.13-5.94.04-11.88.04-17.83Z"/>
  <path class="cls-13" d="M199.64,87.16c0,6.38-.12,12.76.05,19.13.1,3.72-1.64,4.78-5.04,4.74-3.25-.04-4.75-1.19-4.72-4.62.1-12.9.09-25.8,0-38.71-.02-3.46,1.59-4.51,4.81-4.51,3.15,0,4.98.86,4.92,4.4-.1,6.52-.03,13.05-.03,19.57Z"/>
  <path class="cls-4" d="M548.55,92.53c0-4.05.1-8.09-.03-12.13-.11-3.32,1.45-5.45,4.58-4.52,4.77,1.41,9.27-.27,13.89-.15,2.51.06,5.2-.19,5.32,3.44.12,3.81-2.51,3.89-5.31,3.92-9.17.1-9.17.13-9.17,9.39,0,4.33-.05,8.67.04,13,.07,3.12-1.34,4.43-4.44,4.44-3.08,0-5.02-.83-4.93-4.39.12-4.33.03-8.67.03-13h.02Z"/>
  <path class="cls-4" d="M446.04,92.9c0-4.33.04-8.66-.02-12.99-.04-3.25,1.71-4.2,4.67-4.2,2.95,0,4.66.93,4.64,4.2-.06,8.52-.07,17.03,0,25.55.03,3.45-1.71,4.46-4.88,4.44-3.14-.02-4.48-1.35-4.43-4.44.07-4.18.02-8.37.01-12.56Z"/>
  <path class="cls-6" d="M617.85,92.67c0-4.19.08-8.39-.03-12.57-.08-3.2,1.43-4.38,4.49-4.34,2.9.03,4.7.84,4.66,4.18-.08,8.53-.08,17.06,0,25.58.03,3.22-1.5,4.31-4.52,4.33-2.96.02-4.71-.87-4.64-4.17.09-4.33.02-8.67.02-13.01Z"/>
  <path class="cls-4" d="M622.21,64.7c2.76-.19,4.82.44,4.83,3.85,0,3.07-1.72,3.91-4.41,3.94-2.77.03-4.83-.55-4.84-3.94,0-3.06,1.64-4.04,4.42-3.85Z"/>
  <path class="cls-4" d="M450.71,64.7c2.85-.19,4.55.76,4.58,3.8.03,3.33-1.95,4.02-4.76,3.99-2.69-.03-4.44-.84-4.45-3.88-.01-3.31,1.89-4.18,4.64-3.91Z"/>
</svg>