<?xml version="1.0" encoding="UTF-8"?>
<svg id="Layer_1" data-name="Layer 1" xmlns="http://www.w3.org/2000/svg" viewBox="0 0 1060 176.98">
  <defs>
    <style>
      .cls-1 {
        fill: #6052c6;
      }

      .cls-1, .cls-2 {
        stroke-width: 0px;
      }

      .cls-2 {
        fill: #7228b8;
      }
    </style>
  </defs>
  <path class="cls-2" d="M28.93,52.57c14.18-11.4,24.86-11.95,38.14-2.01,2.83,2.12,3.92,1.09,6.05-.57,17.21-13.41,39.19-5.17,40.94,16.63,1.81,22.66.69,45.56.82,68.35,0,.8.06,1.88-.4,2.37-6.45,6.91-14.7,2.73-22.13,3.27-4.91.36-6.06-3.68-6.07-7.87-.02-16.01.14-32.03-.13-48.04-.09-5.49,2.22-13.55-7.18-13.4-8.77.14-6.55,7.81-6.63,13.09-.23,15.74-.22,31.49-.04,47.23.07,6.46-2.43,9.22-9.1,9.42-19.47.59-19.46.78-19.46-18.4,0-12.49,0-24.97,0-37.46,0-1.9.02-3.8-.08-5.7-.26-4.9-2.03-8.51-7.71-8.4-5.76.11-6.22,4.19-6.22,8.52-.02,16.29,0,32.57-.04,48.86-.03,11.83-.67,12.43-12.4,12.5Q.01,141.05.01,123.59c0-22.26-.04-44.52.02-66.77.03-10.47.78-11.14,11.04-11.22,2.44-.02,4.89.02,7.33,0,4.99-.05,10.2-.53,10.52,6.98Z"/>
  <path class="cls-1" d="M634.82,55.31c20.9-21.44,52.16-10.38,61.71,13.04,6.67,16.35,7.08,32.78.31,49.12-9.76,23.56-34.7,32.38-57.32,20.52-1.14-.6-2.33-1.07-4.68-2.15,0,11.43-.21,21.91.08,32.38.17,6.26-2.27,8.87-8.57,8.76-24.41-.45-22.92,3.44-22.95-21.6-.03-32.3-.04-64.61.02-96.91.02-12.34.63-12.85,12.8-12.88,2.99,0,5.98.11,8.96-.02,5.71-.24,10.7.35,9.64,9.74ZM671.22,93.1c.07-12.99-6.31-20.36-17.78-20.57-11.88-.21-18.17,7.02-18.14,20.84.03,13.17,6.44,20.74,17.59,20.78,11.6.03,18.26-7.62,18.33-21.05Z"/>
  <path class="cls-1" d="M996.72,73.53c6.11-6.8,12.6-13.3,18.2-20.5,4.48-5.75,9.63-8.14,16.8-7.54,5.66.47,11.39.08,17.09.16,1.86.03,4.01-.2,5.07,1.8,1.3,2.44-.53,4.12-1.95,5.68-8.63,9.39-17.11,18.93-26.09,27.97-3.99,4.02-3.65,6.81-.33,10.94,10.73,13.3,21.16,26.85,31.62,40.37,1.42,1.83,3.82,3.71,2.49,6.4-1.3,2.63-4.2,1.93-6.57,2.14-.27.02-.55-.03-.81.02-16.4,2.77-28.95-2.39-37.1-17.43-1.91-3.52-4.87-6.52-7.59-9.53-1.87-2.06-2.79-6.58-6.24-5.29-3.81,1.42-6.22,5.1-6.25,9.66-.04,4.88-.16,9.77-.06,14.65.11,5.49-2.57,7.9-7.92,7.91-28.19.06-23.68,2.36-23.82-22.06-.21-36.09-.08-72.18-.03-108.27.01-9.93.66-10.6,10.71-10.54,23.8.14,20.92-2.74,21.06,20.57.1,17.34.02,34.69.02,52.03.58.29,1.15.58,1.73.88Z"/>
  <path class="cls-1" d="M906.78,126.27c-10.81,11.26-23.76,17.67-39.77,16.52-22.78-1.64-35.34-21.34-25.87-40.67,3.74-7.63,10.43-11.47,18.12-14.11,10.09-3.46,20.73-4.07,31.05-6.35,2.99-.66,7.33-.55,7.28-4.97-.05-4.77-4.4-5.92-8.08-6.65-5.34-1.06-11.41-.1-14.11,4.25-4.43,7.12-10.56,6.34-17,6.33-16.18-.02-18.86-4.73-10.87-19.36,4.58-8.38,11.93-13.28,21-15.51,11.23-2.75,22.68-3.03,33.93-.61,16.71,3.59,26.72,15.85,27.37,32.94.32,8.41.15,16.84.16,25.26,0,3.99,1.04,7.39,4.34,10.04,5.88,4.73,8.5,17.24,5.4,24.15-.87,1.95-2.26,2.88-4.2,3.43-11.2,3.18-22.38-2.18-27.26-13.09-.2-.46-.71-.78-1.48-1.58ZM880.07,116.1c5.92.3,11.17-1.53,15.99-4.86,3.44-2.37,4.18-6,3.02-9.34-1.54-4.44-4.99-1.1-7.51-.72-4.52.67-9.03,1.59-13.44,2.81-3.82,1.06-8.82,1.99-7.93,7.38.88,5.26,5.88,4.55,9.87,4.74Z"/>
  <path class="cls-2" d="M437.61,125.39c-11.7,12.44-24.7,18.65-40.72,17.37-21.55-1.73-33.38-18.46-26.83-37.81,2.99-8.83,9.77-13.37,17.93-16.4,10.24-3.81,21.17-4.44,31.73-6.73,3.25-.7,8.8-.03,7.98-5.74-.68-4.75-5.33-6.08-9.43-6.22-5.81-.19-11.12,1.21-14.85,6.61-3.05,4.42-24.17,6.05-28.19,2.59-2.49-2.15-1.82-4.84-1.28-7.53,2.96-14.71,13.87-24.8,29.85-27,8.33-1.15,16.77-1.33,25.15-.21,18.24,2.44,30.31,15.54,31.22,34.03.31,6.23.2,12.48.14,18.71-.07,7.33-.99,14.75,7.63,18.77,2.51,1.17,3.52,18.58,1.67,21.95-2.91,5.3-8.12,3.38-12.45,3.26-9.55-.25-16.78-4.18-19.54-15.65ZM409.27,116.03c7.98.26,13.97-1.71,18.77-6.6,2.31-2.35,2.65-5.59,1.38-8.28-1.48-3.14-4.29-.71-6.42-.35-4.75.81-9.49,1.79-14.16,2.98-4.17,1.06-9.3,2.15-8.32,7.86.91,5.32,6.1,4.09,8.75,4.39Z"/>
  <path class="cls-1" d="M783.94,105.25c-8.15,0-16.3-.08-24.45.06-1.94.03-4.89-1.17-5.5,1.78-.48,2.31,1.78,3.91,3.57,5.06,10.41,6.67,21.61,6.63,32.9,3.02,9.32-2.98,14.62-1.11,19.93,7.33,2.74,4.35.01,6.67-2.71,8.87-15.74,12.75-33.67,14.63-52.29,8.77-18.35-5.77-29.97-18.71-32.96-37.83-3.18-20.32,2.78-37.88,20.12-50.02,16.98-11.88,40.35-12.01,56.78-.32,15.35,10.92,20.5,26.77,19.14,45.01-.4,5.37-3.74,8.23-9.28,8.23-8.42,0-16.84,0-25.26,0v.06ZM771.59,83.36v.03c4.04,0,8.09.08,12.13-.04,1.76-.05,4.13.69,4.92-1.65.65-1.94-.74-3.6-1.9-5.08-6.33-8.08-24.21-7.81-30.46.44-.98,1.29-2.29,2.66-1.69,4.32.8,2.2,3.02,1.93,4.87,1.96,4.04.07,8.09.02,12.13.02Z"/>
  <path class="cls-2" d="M202.73,105.25c-7.87,0-15.74-.07-23.61.05-2.03.03-5-1.02-5.81,1.49-.88,2.69,1.8,4.45,3.77,5.65,10.77,6.56,22.18,6.21,33.65,2.29,7.04-2.41,17.73,2.62,19.77,9.66.84,2.88-.93,4.54-2.72,6.28-13.2,12.79-39.47,16.31-58.19,7.78-18.74-8.53-30.49-27.46-29.08-46.83,1.68-23.1,14.18-39.53,35.04-46.05,33.93-10.6,65.59,15.49,61.7,50.69-.66,5.97-3.38,8.9-9.28,8.92-8.41.03-16.82,0-25.23,0,0,.02,0,.05,0,.07ZM189.84,83.38v-.03c4.35,0,8.69.04,13.04-.02,1.58-.02,3.49.23,4.33-1.53.99-2.05-.5-3.61-1.62-5.1-6.31-8.44-24.2-8.08-30.35.66-.89,1.26-1.97,3.08-1.67,4.33.57,2.38,3.1,1.59,4.87,1.65,3.8.12,7.6.04,11.41.04Z"/>
  <path class="cls-1" d="M533.01,142.96c-5.25.29-11.7-.43-18.1-1.87-14.21-3.19-22.63-12.29-25.26-26.5-1.17-6.34,1.26-8.61,7.16-8.56,4.62.04,9.24.05,13.85-.02,3.76-.05,6.46,1,8.74,4.55,4.48,6.98,19.79,9.16,26.6,4.34,1.39-.99,2.64-2.22,2.33-3.99-.54-3.07-3.01-4.65-5.69-5.17-7.18-1.41-14.41-2.68-21.68-3.57-19.52-2.4-30.17-11.57-30.54-26.62-.38-15.53,10.85-27.91,29.06-30.79,12.93-2.04,26.02-2.22,38.55,2.72,11.08,4.36,17.08,12.96,19.37,24.37,1.07,5.31-.91,8.49-6.65,8.57-5.16.07-10.32.04-15.48.06-3.52.01-5.91-1.37-7.95-4.54-4-6.25-14.23-8.69-20.97-5.57-2.05.95-3.82,2.22-3.93,4.74-.13,3.01,1.82,4.47,4.41,4.98,5.85,1.15,11.71,2.34,17.62,3.05,5.98.72,11.81,2.02,17.37,4.18,9.41,3.66,16.3,9.71,17.46,20.51,1.28,11.89-2.74,21.32-12.92,27.89-8.06,5.21-17.39,7.31-33.38,7.24Z"/>
  <path class="cls-2" d="M291.98,17.91c.81,0,1.63,0,2.44,0q12.83.03,12.85,13.2c.07,15.89-1.59,14.39,14.36,14.47,1.9,0,3.8,0,5.7,0,15.15,0,19.08,5.36,15.3,20.54-.99,3.99-3.56,5.05-7.17,5.04-7.32,0-14.65.16-21.97.02-4.54-.09-6.36,1.87-6.25,6.34.16,6.5-.15,13.02.1,19.52.55,14.64,10.15,20.67,23.99,15.26,8.21-3.21,12.7-1.13,18.2,8.56,3.96,6.97-1.98,10-5.91,13.13-13.22,10.54-38.94,11.21-53.12,1.82-8.58-5.68-12.28-14.1-13.65-23.91-1.43-10.25-1.46-20.57-1.04-30.85.29-7.14-1.68-10.28-9.56-10.02-13.8.46-19.05-8.01-14.19-21.21,1.47-4,4.5-4.07,7.83-4.23q15.55-.76,15.82-15.69c.21-11.68.64-11.99,16.25-11.99Z"/>
</svg>